<svg width="5" height="15" viewBox="0 0 5 15" fill="none" xmlns="http://www.w3.org/2000/svg">
<path d="M2 3.5C0.999999 3.5 0.999999 4.5 0.999999 4.5C0.999999 4.5 0.999999 5.5 2 5.5C3 5.5 3 4.5 3 4.5C3 4.5 3 3.5 2 3.5Z" fill="white"/>
<path fill-rule="evenodd" clip-rule="evenodd" d="M-1.01328e-06 6L-1.13249e-06 7.5H3V8.5H0.999999C-1.54972e-06 8.5 -1.3113e-06 9.5 -1.3113e-06 9.5L-1.43051e-06 11C-1.43051e-06 11 -1.37091e-06 12 0.999999 12L4.5 12V7C4.5 6 3.5 6 3.5 6L-1.01328e-06 6ZM3 9.5H1.5V10.5H3L3 9.5Z" fill="white"/>
</svg>
