<svg width="5" height="15" viewBox="0 0 5 15" fill="none" xmlns="http://www.w3.org/2000/svg">
<path fill-rule="evenodd" clip-rule="evenodd" d="M4.5 11C4.49999 12 3.5 12 3.5 12L1 12C1 12 1.42055e-06 12 1.55766e-06 11L2.29478e-06 7C2.4299e-06 6 1 6 1 6L3.5 6C3.5 6 4.5 6 4.5 7L4.5 11ZM1.5 7.5L3 7.5L3 10.5L1.5 10.5L1.5 7.5Z" fill="white"/>
<path d="M0.500001 5L1.5 5C2 5 2.25 4.5 2.25 4.5C2.25 4.5 2.5 5 3 5L4 5L4 3.5L3.5 3.5C3 3.5 3 3 3 3L1.5 3C1.5 3 1.5 3.5 1 3.5L0.500001 3.5L0.500001 5Z" fill="white"/>
</svg>
