<svg width="5" height="15" viewBox="0 0 5 15" fill="none" xmlns="http://www.w3.org/2000/svg">
<g clip-path="url(#clip0_2_1057)">
<path fill-rule="evenodd" clip-rule="evenodd" d="M8.74227e-08 11C7.62939e-06 12 1 12 1 12L3.5 12C3.5 12 4.5 12 4.5 11L4.5 7C4.5 6 3.5 6 3.5 6L1 6C1 6 1.47821e-06 6 -3.97233e-08 7L8.74227e-08 11ZM3 7.5L1.5 7.5L1.5 10.5L3 10.5L3 7.5Z" fill="white"/>
<path d="M0.5 3L2 3C2 3 2 3.5 2.5 3.5L3.5 3.5L3.5 5L1.5 5C0.5 5 0.5 4 0.5 4L0.5 3Z" fill="white"/>
</g>
<defs>
<clipPath id="clip0_2_1057">
<rect width="5" height="15" fill="white"/>
</clipPath>
</defs>
</svg>
