<svg width="6" height="15" viewBox="0 0 6 15" fill="none" xmlns="http://www.w3.org/2000/svg">
<path fill-rule="evenodd" clip-rule="evenodd" d="M4 12C4 12 4.99999 12 5 11L5 7C5 6.76852 4.94642 6.59063 4.86406 6.45391L5.5 5.5L5 5L4.30116 6.04827C4.13256 6 4 6 4 6L1.5 6C1.5 6 0.500001 6 0.500001 7L0.5 11C0.5 11.2315 0.553582 11.4094 0.63594 11.5461L0 12.5L0.5 13L1.19884 11.9517C1.36744 12 1.5 12 1.5 12L4 12ZM2.16667 10.5L3.5 8.5L3.5 10.5L2.16667 10.5ZM3.33333 7.5L2 9.5L2 7.5L3.33333 7.5Z" fill="white"/>
</svg>
