<svg width="7" height="15" viewBox="0 0 7 15" fill="none" xmlns="http://www.w3.org/2000/svg">
<g clip-path="url(#clip0_2_1069)">
<path fill-rule="evenodd" clip-rule="evenodd" d="M1 12C1 12 -4.96836e-08 12 8.74228e-08 11L8.24544e-07 7C9.59666e-07 6 1 6 1 6L6 6C7 6 7 7 7 7L7 9.5L4.5 9.5L4.5 10.5L7 10.5L7 12L1 12ZM1.5 7.5L2.5 7.5L2.5 10.5L1.5 10.5L1.5 7.5ZM5.5 8.5L5.5 7.5L4.5 7.5L4.5 8.5L5.5 8.5Z" fill="white"/>
</g>
<defs>
<clipPath id="clip0_2_1069">
<rect width="7" height="15" fill="white"/>
</clipPath>
</defs>
</svg>
