<svg width="5" height="15" viewBox="0 0 5 15" fill="none" xmlns="http://www.w3.org/2000/svg">
<g clip-path="url(#clip0_2_1085)">
<path d="M3 10.5L3 6L4.5 6L4.5 11C4.5 12 3.5 12 3.5 12L3 12L3 15L1.5 15L1.5 12L1 12C1 12 1.69278e-06 12 1.7802e-06 11L1.74048e-06 6L1.5 6L1.5 10.5L3 10.5Z" fill="white"/>
<path d="M2.5 3.5L4 3.5L4 5L2.5 5L2.5 3.5Z" fill="white"/>
<path d="M0.500001 3.5L2 3.5L2 5L0.500001 5L0.500001 3.5Z" fill="white"/>
</g>
<defs>
<clipPath id="clip0_2_1085">
<rect width="5" height="15" fill="white"/>
</clipPath>
</defs>
</svg>
