<svg width="7" height="15" viewBox="0 0 7 15" fill="none" xmlns="http://www.w3.org/2000/svg">
<path fill-rule="evenodd" clip-rule="evenodd" d="M0 6L4.1127e-07 6.75L2 6.75C2.75 6.75 2.75 7.5 2.75 7.5V8.62501L1.5 8.62501C5.96046e-07 8.62501 6.03983e-07 10 6.03983e-07 10L5.60271e-07 10.5C5.60271e-07 10.5 7.15256e-07 12 1.5 12L6.5 12L6.5 11.25L4.5 11.25C3.75 11.25 3.75 10.5 3.75 10.5V9.37501L6.5 9.375V7.50001C6.5 7.50001 6.5 6.00001 5 6.00001L0 6ZM2.75 9.375L1.5 9.375C0.750001 9.375 0.750001 10 0.750001 10L0.750001 10.5C0.750001 10.5 0.750001 11.25 1.5 11.25L2.75 11.25L2.75 9.375ZM3.75 8.62501L5.75 8.62501V7.50001C5.75 7.50001 5.75 6.75001 5 6.75001L4.5 6.75001C3.75 6.75001 3.75 7.5 3.75 7.5V8.62501Z" fill="white"/>
</svg>
