<svg width="5" height="15" viewBox="0 0 5 15" fill="none" xmlns="http://www.w3.org/2000/svg">
<path fill-rule="evenodd" clip-rule="evenodd" d="M4.5 12V11.25H1.5C0.75 11.25 0.75 10.5 0.75 10.5V9.375H4.5V7.5C4.5 7.5 4.5 6 3 6H1.5C0 6 0 7.5 0 7.5V10.5C0 10.5 0 12 1.5 12H4.5ZM0.75 8.625H3.75V7.5C3.75 7.5 3.75 6.75 3 6.75H1.5C0.75 6.75 0.75 7.5 0.75 7.5V8.625Z" fill="white"/>
<path d="M0.25 5H1.25C1.75 5 2.25 4 2.25 4C2.25 4 2.75 5 3.25 5H4.25V4.25H3.75C2.75 4.25 2.75 3 2.75 3H1.75C1.75 3 1.75 4.25 0.75 4.25H0.25V5Z" fill="white"/>
</svg>
