<svg width="6" height="15" viewBox="0 0 6 15" fill="none" xmlns="http://www.w3.org/2000/svg">
<g clip-path="url(#clip0_102_170)">
<path fill-rule="evenodd" clip-rule="evenodd" d="M3.93402e-07 7.5C3.93402e-07 7.5 5.24537e-07 6 1.5 6L3.75 6L3.75 4.75L1 4.75L1 4L3.75 4L3.75 3L4.5 3L4.5 4L5.5 4L5.5 4.75L4.5 4.75L4.5 10.5C4.5 10.5 4.5 12 3 12L1.5 12C3.57628e-07 12 1.94312e-06 10.5 1.94312e-06 10.5L3.93402e-07 7.5ZM1.5 6.75L3.75 6.75L3.75 10.5C3.75 10.5 3.75 11.25 3 11.25L1.5 11.25C0.75 11.25 0.75 10.5 0.75 10.5L0.75 7.5C0.75 7.5 0.75 6.75 1.5 6.75Z" fill="white"/>
</g>
<defs>
<clipPath id="clip0_102_170">
<rect width="6" height="15" fill="white"/>
</clipPath>
</defs>
</svg>
