<svg width="6" height="15" viewBox="0 0 6 15" fill="none" xmlns="http://www.w3.org/2000/svg">
<path fill-rule="evenodd" clip-rule="evenodd" d="M4.00001 12C5.50001 12 5.50001 10.5 5.50001 10.5V7.5C5.50001 7.5 5.50001 6.98869 5.20148 6.56311L5.80515 5.71796L5.19485 5.28204L4.60903 6.10218C4.44009 6.03811 4.2391 6 4.00001 6L2.5 6C1 6 1 7.5 1 7.5L1.00001 10.5C1.00001 10.5 1.00001 10.7371 1.09429 11.0228L0.194855 12.282L0.805155 12.718L1.53635 11.6943C1.75567 11.8737 2.06466 12 2.5 12H4.00001ZM4.75 10.5V7.5C4.75 7.5 4.75 7.38996 4.70786 7.25418L1.98424 11.0672C2.09524 11.1725 2.25885 11.25 2.5 11.25L4 11.25C4.75 11.25 4.75 10.5 4.75 10.5ZM2.5 6.75C1.75 6.75 1.75 7.5 1.75 7.5L1.75 10.1048L4.13955 6.75946C4.09619 6.7533 4.04975 6.75 4 6.75L2.5 6.75Z" fill="white"/>
</svg>
