<svg width="7" height="15" viewBox="0 0 7 15" fill="none" xmlns="http://www.w3.org/2000/svg">
<g clip-path="url(#clip0_102_216)">
<path fill-rule="evenodd" clip-rule="evenodd" d="M1.5 12C0 12 1.08481e-06 10.5 1.08481e-06 10.5L8.7024e-07 7.5C8.7024e-07 7.5 5.24537e-07 6 1.5 6L2 6L5 6C6.5 6 6.5 7.5 6.5 7.5L6.5 9.375L3.5 9.375L3.5 10.5C3.5 10.5 3.5 11.25 4.25 11.25L6.5 11.25L6.5 12L1.5 12ZM2.75 10.5L2.75 7.5C2.75 7.5 2.75 6.75 2 6.75L1.5 6.75C0.75 6.75 0.750001 7.5 0.750001 7.5L0.750001 10.5C0.750001 10.5 0.750001 11.25 1.5 11.25L2 11.25C2.75 11.25 2.75 10.5 2.75 10.5ZM5.75 7.5L5.75 8.625L3.5 8.625L3.5 7.5C3.5 7.5 3.5 6.75 4.25 6.75L5 6.75C5.75 6.75 5.75 7.5 5.75 7.5Z" fill="white"/>
</g>
<defs>
<clipPath id="clip0_102_216">
<rect width="7" height="15" fill="white"/>
</clipPath>
</defs>
</svg>
