<svg width="5" height="15" viewBox="0 0 5 15" fill="none" xmlns="http://www.w3.org/2000/svg">
<path d="M0.5 12V11.25H3C3.75 11.25 3.75 10.5 3.75 10.5V10C3.75 10 3.75 9.375 3 9.375H1.5C1.78814e-06 9.375 0 8 0 8V7.5C0 7.5 0 6 1.5 6H4V6.75H1.5C0.75 6.75 0.75 7.5 0.75 7.5V8C0.75 8 0.75 8.625 1.5 8.625H3C4.5 8.625 4.5 10 4.5 10V10.5C4.5 10.5 4.5 12 3 12H0.5Z" fill="white"/>
<path d="M0.25 3H1.25C1.75 3 2.25 4 2.25 4C2.25 4 2.75 3 3.25 3H4.25V3.75H3.75C2.75 3.75 2.75 5 2.75 5H1.75C1.75 5 1.75 3.75 0.75 3.75H0.25V3Z" fill="white"/>
</svg>
