<svg width="5" height="15" viewBox="0 0 5 15" fill="none" xmlns="http://www.w3.org/2000/svg">
<g clip-path="url(#clip0_102_232)">
<path d="M3.75 10.5L3.75 6L4.5 6L4.5 10.5C4.5 10.5 4.5 12 3 12L1.5 12C0 12 1.31134e-07 10.5 1.31134e-07 10.5L-4.29138e-07 6L0.75 6L0.75 10.5C0.75 10.5 0.75 11.25 1.5 11.25L3 11.25C3.75 11.25 3.75 10.5 3.75 10.5Z" fill="white"/>
<path d="M1.5 3H0.75V3.75H1.5V3Z" fill="white"/>
<path d="M3 3.75V3H3.75V3.75H3Z" fill="white"/>
</g>
<defs>
<clipPath id="clip0_102_232">
<rect width="5" height="15" fill="white"/>
</clipPath>
</defs>
</svg>
