<svg width="4" height="15" viewBox="0 0 4 15" fill="none" xmlns="http://www.w3.org/2000/svg">
<g clip-path="url(#clip0_102_241)">
<path d="M0.25 3H1.25C1.75 3 2.25 4 2.25 4C2.25 4 2.75 3 3.25 3H4.25V3.75H3.75C2.75 3.75 2.75 5 2.75 5H1.75C1.75 5 1.75 3.75 0.75 3.75H0.25V3Z" fill="white"/>
<path d="M4 12V11.25H0.75V10C0.75 10 0.75 9.375 1.5 9.375H2.5C4 9.375 4 8 4 8V6H0V6.75H3.25V8C3.25 8 3.25 8.625 2.5 8.625H1.5C0 8.625 0 10 0 10V12H4Z" fill="white"/>
</g>
<defs>
<clipPath id="clip0_102_241">
<rect width="4" height="15" fill="white"/>
</clipPath>
</defs>
</svg>
