<svg width="9" height="15" viewBox="0 0 9 15" fill="none" xmlns="http://www.w3.org/2000/svg">
<g clip-path="url(#clip0_8_49)">
<path fill-rule="evenodd" clip-rule="evenodd" d="M6.5 5.5L2.5 5.5C-8.62263e-07 5.5 3.49691e-07 8 3.49691e-07 8L-9.53674e-07 12L0.5 12L0.5 8C0.5 8 0.5 6 2.5 6L6.5 6C8.5 6 8.5 8 8.5 8L8.5 11.5L6.5 11.5L6.5 8L4 8C2.5 8 2.5 9.5 2.5 9.5L2.5 10.5C2.5 10.5 2.5 12 4 12L9 12L9 8C9 8 9 5.5 6.5 5.5ZM6 8.5L4 8.5C3 8.5 3 9.5 3 9.5L3 10.5C3 10.5 3 11.5 4 11.5L6 11.5L6 8.5Z" fill="white"/>
</g>
<defs>
<clipPath id="clip0_8_49">
<rect width="9" height="15" fill="white"/>
</clipPath>
</defs>
</svg>
