<svg width="4" height="15" viewBox="0 0 4 15" fill="none" xmlns="http://www.w3.org/2000/svg">
<g clip-path="url(#clip0_8_121)">
<path fill-rule="evenodd" clip-rule="evenodd" d="M0.353557 7L3.60608e-06 6.64645L0.580016 6.06643C0.250001 5.57549 0.25 5 0.25 5C0.25 5 0.25 4.42452 0.580016 3.93357L-3.8147e-06 3.35355L0.35355 3L0.923105 3.56956C1.17555 3.38019 1.52268 3.25 2 3.25C2.47732 3.25 2.82444 3.3802 3.07689 3.56956L3.64645 3L4 3.35356L3.41998 3.93358C3.75 4.42452 3.75 5.00001 3.75 5.00001C3.75 5.00001 3.75 5.57549 3.41998 6.06644L3.99999 6.64645L3.64644 7L3.07689 6.43045C2.82444 6.61982 2.47732 6.75 2 6.75C1.52268 6.75 1.17555 6.61981 0.923105 6.43045L0.353557 7ZM0.75 5C0.75 5 0.75 3.75 2 3.75C3.25 3.75 3.25 5.00001 3.25 5.00001C3.25 5.00001 3.25 6.25 2 6.25C0.75 6.25 0.75 5 0.75 5Z" fill="white"/>
</g>
<defs>
<clipPath id="clip0_8_121">
<rect width="4" height="15" fill="white"/>
</clipPath>
</defs>
</svg>
