<svg width="7" height="15" viewBox="0 0 7 15" fill="none" xmlns="http://www.w3.org/2000/svg">
<path fill-rule="evenodd" clip-rule="evenodd" d="M1.5 5.5C2.05228 5.5 2.5 5.05228 2.5 4.5C2.5 3.94772 2.05228 3.5 1.5 3.5C0.947715 3.5 0.5 3.94772 0.5 4.5C0.5 5.05228 0.947715 5.5 1.5 5.5ZM1.5 6C2.32843 6 3 5.32843 3 4.5C3 3.67157 2.32843 3 1.5 3C0.671573 3 0 3.67157 0 4.5C0 5.32843 0.671573 6 1.5 6Z" fill="white"/>
<path fill-rule="evenodd" clip-rule="evenodd" d="M5.5 11.5C6.05228 11.5 6.5 11.0523 6.5 10.5C6.5 9.94772 6.05228 9.5 5.5 9.5C4.94772 9.5 4.5 9.94772 4.5 10.5C4.5 11.0523 4.94772 11.5 5.5 11.5ZM5.5 12C6.32843 12 7 11.3284 7 10.5C7 9.67157 6.32843 9 5.5 9C4.67157 9 4 9.67157 4 10.5C4 11.3284 4.67157 12 5.5 12Z" fill="white"/>
<path fill-rule="evenodd" clip-rule="evenodd" d="M6.7 3.65001L0.700003 11.65L0.300003 11.35L6.3 3.35001L6.7 3.65001Z" fill="white"/>
</svg>
