<svg width="9" height="15" viewBox="0 0 9 15" fill="none" xmlns="http://www.w3.org/2000/svg">
<path fill-rule="evenodd" clip-rule="evenodd" d="M2.5 3C0 3 0 5.5 0 5.5V9.5C0 9.5 0 12 2.5 12H6.5C9 12 9 9.5 9 9.5V5.5C9 5.5 9 3 6.5 3H2.5ZM0.5 5.5C0.5 5.5 0.5 3.5 2.5 3.5H6.5C8.5 3.5 8.5 5.5 8.5 5.5V9.5C8.5 9.5 8.5 11.5 6.5 11.5H2.5C0.5 11.5 0.5 9.5 0.5 9.5V5.5Z" fill="white"/>
<path fill-rule="evenodd" clip-rule="evenodd" d="M2.5 5.5H5.5C6.5 5.5 6.5 6.5 6.5 6.5V7.25C6.5 7.75 6 8 6 8C6 8 6.5 8.25 6.5 8.75V9.5H6V8.75C6 8.75 6 8.25 5.5 8.25H3V9.5H2.5V5.5ZM5.5 6H3V7.75H5.5C6 7.75 6 7.25 6 7.25V6.5C6 6.5 6 6 5.5 6Z" fill="white"/>
</svg>
