<svg width="6" height="15" viewBox="0 0 6 15" fill="none" xmlns="http://www.w3.org/2000/svg">
<path d="M0.500013 3.75L0.500028 3H3.50001C6.00001 3 6.00001 5.5 6.00001 5.5C6.00001 7.25 4.50001 7.5 4.50001 7.5C4.50001 7.5 6.00001 7.75 6.00001 9.5C6.00001 9.5 6.00001 12 3.50001 12H0.500028L0.500028 11.25H3.50001C5.25002 11.25 5.25002 9.5 5.25002 9.5C5.25002 9.5 5.25002 7.875 3.5 7.875H0.500015V7.125H3.5C5.25002 7.125 5.25002 5.5 5.25002 5.5C5.25002 5.5 5.25002 3.75 3.5 3.75H0.500013Z" fill="white"/>
</svg>
