<svg width="6" height="15" viewBox="0 0 6 15" fill="none" xmlns="http://www.w3.org/2000/svg">
<path fill-rule="evenodd" clip-rule="evenodd" d="M0 5.5C0 5.5 0 3 2.5 3H3.5C6 3 6 5.5 6 5.5C6 7 5 7.5 5 7.5C5 7.5 6 8 6 9.5C6 9.5 6 12 3.5 12H2.5C0 12 0 9.5 0 9.5C0 8 1 7.5 1 7.5C1 7.5 0 7 0 5.5ZM5.25 5.5C5.25 5.5 5.25 3.75 3.5 3.75H2.5C0.75 3.75 0.75 5.5 0.75 5.5C0.75 5.5 0.75 7.125 2.5 7.125H3.5C5.25 7.125 5.25 5.5 5.25 5.5ZM3.5 7.875H2.5C0.75 7.875 0.75 9.5 0.75 9.5C0.75 9.5 0.75 11.25 2.5 11.25H3.5C5.25 11.25 5.25 9.5 5.25 9.5C5.25 9.5 5.5 7.875 3.5 7.875Z" fill="white"/>
</svg>
