<svg width="5" height="15" viewBox="0 0 5 15" fill="none" xmlns="http://www.w3.org/2000/svg">
<g clip-path="url(#clip0_8_149)">
<path d="M1.5 4.5V5H3C4.5 5 4.5 3.5 4.5 3.5V3H4V3.5C4 3.5 4 4.5 3 4.5H1.5Z" fill="white"/>
<path fill-rule="evenodd" clip-rule="evenodd" d="M-4.29137e-07 5.99999L-4.72849e-07 6.5L3 6.5C4 6.5 4 7.5 4 7.5L4 8.75L1.5 8.75C-1.92713e-07 8.75 1.74846e-07 10 1.74846e-07 10L1.31134e-07 10.5C1.31134e-07 10.5 0 12 1.5 12L4.5 12L4.5 7.5C4.5 6 3 6 3 6L-4.29137e-07 5.99999ZM4 9.25L1.5 9.25C0.5 9.25 0.5 10 0.5 10L0.5 10.5C0.5 10.5 0.5 11.5 1.5 11.5L4 11.5L4 9.25Z" fill="white"/>
</g>
<defs>
<clipPath id="clip0_8_149">
<rect width="5" height="15" fill="white"/>
</clipPath>
</defs>
</svg>
