<svg width="7" height="15" viewBox="0 0 7 15" fill="none" xmlns="http://www.w3.org/2000/svg">
<g clip-path="url(#clip0_8_164)">
<path fill-rule="evenodd" clip-rule="evenodd" d="M3.8624e-06 6L3.81869e-06 6.50001L2 6.50001C3.00001 6.50001 3.00001 7.50001 3.00001 7.50001L3.00001 8.75001L1.5 8.75001C4.09882e-06 8.75001 4.46638e-06 10 4.46638e-06 10L4.42267e-06 10.5C4.42267e-06 10.5 4.29154e-06 12 1.5 12L6.5 12L6.5 11.5L4.50001 11.5C3.5 11.5 3.5 10.5 3.5 10.5L3.50001 9.25001L6.5 9.25003L6.5 7.50003C6.5 7.50003 6.5 6.00003 5 6.00002L3.8624e-06 6ZM3.00001 9.25001L1.5 9.25001C0.500004 9.25001 0.500004 10 0.500004 10L0.500004 10.5C0.500004 10.5 0.500004 11.5 1.5 11.5L3.00001 11.5L3.00001 9.25001ZM6 8.75003L3.50001 8.75001L3.5 7.50003C3.5 7.50003 3.50001 6.50002 4.50001 6.50002L5 6.50003C6 6.50002 6 7.50002 6 7.50002L6 8.75003Z" fill="white"/>
</g>
<defs>
<clipPath id="clip0_8_164">
<rect width="7" height="15" fill="white"/>
</clipPath>
</defs>
</svg>
