<svg width="6" height="15" viewBox="0 0 6 15" fill="none" xmlns="http://www.w3.org/2000/svg">
<g clip-path="url(#clip0_8_168)">
<path fill-rule="evenodd" clip-rule="evenodd" d="M3.93402e-07 7.5C3.93402e-07 7.5 4.05327e-07 6 1.5 6L4 6L4 4.5L1 4.5L1 4L4 4L4 3L4.5 3L4.5 4L5.5 4L5.5 4.5L4.5 4.5L4.5 10.5C4.5 10.5 4.5 12 3 12L1.5 12C3.57628e-07 12 1.94312e-06 10.5 1.94312e-06 10.5L3.93402e-07 7.5ZM1.5 6.5L4 6.5L4 10.5C4 10.5 4 11.5 3 11.5L1.5 11.5C0.5 11.5 0.5 10.5 0.5 10.5L0.5 7.5C0.5 7.5 0.577372 6.5 1.5 6.5Z" fill="white"/>
</g>
<defs>
<clipPath id="clip0_8_168">
<rect width="6" height="15" fill="white"/>
</clipPath>
</defs>
</svg>
