<svg width="5" height="15" viewBox="0 0 5 15" fill="none" xmlns="http://www.w3.org/2000/svg">
<g clip-path="url(#clip0_8_206)">
<path d="M0.25 4.5H1.25C1.75 4.5 2.25 3.5 2.25 3.5C2.25 3.5 2.75 4.5 3.25 4.5H4.25V4H3.75C2.75 4 2.75 3 2.75 3H1.75C1.75 3 1.75 4 0.75 4H0.25V4.5Z" fill="white"/>
<path fill-rule="evenodd" clip-rule="evenodd" d="M1.31134e-07 10.5C1.31134e-07 10.5 0 12 1.5 12L3 12C4.5 12 4.5 10.5 4.5 10.5L4.5 7.5C4.5 7.5 4.5 6 3 6L1.5 6C4.76995e-08 6 -8.34347e-08 7.5 -8.34347e-08 7.5L1.31134e-07 10.5ZM4 7.5C4 7.5 4 6.5 3 6.5L1.5 6.5C0.5 6.5 0.5 7.5 0.5 7.5L0.5 10.5C0.5 10.5 0.5 11.5 1.5 11.5L3 11.5C4 11.5 4 10.5 4 10.5L4 7.5Z" fill="white"/>
</g>
<defs>
<clipPath id="clip0_8_206">
<rect width="5" height="15" fill="white"/>
</clipPath>
</defs>
</svg>
