<svg width="6" height="15" viewBox="0 0 6 15" fill="none" xmlns="http://www.w3.org/2000/svg">
<path fill-rule="evenodd" clip-rule="evenodd" d="M1.14742 11.1635L0.29657 12.3547L0.703437 12.6453L1.44311 11.6098C1.66533 11.8327 1.999 12 2.5 12L4 12C5.5 12 5.5 10.5 5.5 10.5V7.5C5.5 7.5 5.5 6.901 5.12148 6.46005L5.70344 5.64531L5.29657 5.35469L4.72625 6.15314C4.53521 6.05881 4.29701 6 4 6L2.5 6C1 6 1 7.5 1 7.5L1 10.5C1 10.5 1 10.8194 1.14742 11.1635ZM4.42463 6.57541C4.30822 6.52831 4.16827 6.5 4 6.5L2.5 6.5C1.5 6.5 1.5 7.5 1.5 7.5L1.5 10.5C1.5 10.5 1.5 10.5595 1.51453 10.6495L4.42463 6.57541ZM4.81264 6.89243C5 7.17257 5 7.5 5 7.5V10.5C5 10.5 5 11.5 4 11.5L2.5 11.5C2.12655 11.5 1.89257 11.3605 1.74596 11.1858L4.81264 6.89243Z" fill="white"/>
</svg>
