<svg width="7" height="15" viewBox="0 0 7 15" fill="none" xmlns="http://www.w3.org/2000/svg">
<g clip-path="url(#clip0_8_214)">
<path fill-rule="evenodd" clip-rule="evenodd" d="M1.5 12C1.43051e-06 12 2.03848e-06 10.5 2.03848e-06 10.5L1.34708e-06 7.5C1.34708e-06 7.5 1.47821e-06 6 1.5 6L5 6C6.5 6 6.5 7.5 6.5 7.5L6.5 9.25L3.5 9.25L3.5 10.5C3.5 10.5 3.5 11.5 4.5 11.5L6.5 11.5L6.5 12L1.5 12ZM3 10.5L3 7.5C3 7.5 3 6.5 2 6.5L1.5 6.5C0.500001 6.5 0.500001 7.5 0.500001 7.5L0.500002 10.5C0.500002 10.5 0.500001 11.5 1.5 11.5L2 11.5C3 11.5 3 10.5 3 10.5ZM4.5 6.5C3.5 6.5 3.5 7.5 3.5 7.5L3.5 8.75L6 8.75L6 7.5C6 7.5 6 6.5 5 6.5L4.5 6.5Z" fill="white"/>
</g>
<defs>
<clipPath id="clip0_8_214">
<rect width="7" height="15" fill="white"/>
</clipPath>
</defs>
</svg>
