<svg width="5" height="15" viewBox="0 0 5 15" fill="none" xmlns="http://www.w3.org/2000/svg">
<path d="M4 3L3 3C2.5 3 2 4 2 4C2 4 1.5 3 1 3L1.31134e-07 3L8.74228e-08 3.5L0.5 3.5C1.5 3.5 1.5 4.5 1.5 4.5L2.5 4.5C2.5 4.5 2.5 3.5 3.5 3.5L4 3.5L4 3Z" fill="white"/>
<path d="M0.5 12V11.5H3C4 11.5 4 10.5 4 10.5V10C4 10 4 9.25 3 9.25H1.5C1.78814e-06 9.25 0 8 0 8V7.5C0 7.5 0 6 1.5 6H4V6.5H1.5C0.5 6.5 0.5 7.5 0.5 7.5V8C0.5 8 0.5 8.75 1.5 8.75H3C4.5 8.75 4.5 10 4.5 10V10.5C4.5 10.5 4.5 12 3 12H0.5Z" fill="white"/>
</svg>
