<svg width="5" height="15" viewBox="0 0 5 15" fill="none" xmlns="http://www.w3.org/2000/svg">
<g clip-path="url(#clip0_8_230)">
<path d="M4 10.5L4 6L4.5 6L4.5 10.5C4.5 10.5 4.5 12 3 12L1.5 12C0 12 1.31134e-07 10.5 1.31134e-07 10.5L-4.29138e-07 6L0.5 6L0.5 10.5C0.5 10.5 0.5 11.5 1.5 11.5L3 11.5C4 11.5 4 10.5 4 10.5Z" fill="white"/>
<path d="M1.25 3H0.75V3.5H1.25V3Z" fill="white"/>
<path d="M3.25 3H3.75V3.5H3.25V3Z" fill="white"/>
</g>
<defs>
<clipPath id="clip0_8_230">
<rect width="5" height="15" fill="white"/>
</clipPath>
</defs>
</svg>
