<svg width="4" height="15" viewBox="0 0 4 15" fill="none" xmlns="http://www.w3.org/2000/svg">
<g clip-path="url(#clip0_8_239)">
<path d="M4 3L3 3C2.5 3 2 4 2 4C2 4 1.5 3 1 3L1.31134e-07 3L8.74228e-08 3.5L0.5 3.5C1.5 3.5 1.5 4.5 1.5 4.5L2.5 4.5C2.5 4.5 2.5 3.5 3.5 3.5L4 3.5L4 3Z" fill="white"/>
<path d="M4 12V11.5H0.5V10C0.5 10 0.5 9.25 1.5 9.25H2.5C4 9.25 4 8 4 8V6H0V6.5H3.5V8C3.5 8 3.5 8.75 2.5 8.75H1.5C0 8.75 0 10 0 10V12H4Z" fill="white"/>
</g>
<defs>
<clipPath id="clip0_8_239">
<rect width="4" height="15" fill="white"/>
</clipPath>
</defs>
</svg>
