<svg width="9" height="15" viewBox="0 0 9 15" fill="none" xmlns="http://www.w3.org/2000/svg">
<g clip-path="url(#clip0_2_50)">
<path fill-rule="evenodd" clip-rule="evenodd" d="M6.5 5.5L2.5 5.5C-1.3391e-06 5.5 3.49691e-07 8 3.49691e-07 8L-9.53674e-07 12L1 12L1 8C1 8 1 6.5 2.5 6.5L6.5 6.5C8 6.5 8 8 8 8L8 11L6.5 11L6.5 8L4 8C2.5 8 2.5 9.5 2.5 9.5L2.5 10.5C2.5 10.5 2.5 12 4 12L9 12L9 8C9 8 9 5.5 6.5 5.5ZM5.5 9L4 9C3.5 9 3.5 9.5 3.5 9.5L3.5 10.5C3.5 10.5 3.5 11 4 11L5.5 11L5.5 9Z" fill="white"/>
</g>
<defs>
<clipPath id="clip0_2_50">
<rect width="9" height="15" fill="white"/>
</clipPath>
</defs>
</svg>
