<svg width="4" height="15" viewBox="0 0 4 15" fill="none" xmlns="http://www.w3.org/2000/svg">
<path fill-rule="evenodd" clip-rule="evenodd" d="M0.25 5C0.25 4.78169 0.5 4.5 0.5 4.5L0 4L0.5 3.25L1 3.5C1 3.5 1.5 3.25 2 3.25C2.5 3.25 3 3.5 3 3.5L3.5 3.25L4 4L3.5 4.5C3.5 4.5 3.75 4.78169 3.75 5C3.75 5.21831 3.5 5.5 3.5 5.5L4 6L3.5 6.75L3 6.5C3 6.5 2.5 6.75 2 6.75C1.5 6.75 1 6.5 1 6.5L0.5 6.75L0 6L0.5 5.5C0.5 5.5 0.25 5.21831 0.25 5ZM1 5C1 5 1 4 2 4C3 4 3 5 3 5C3 5 3 6 2 6C1 6 1 5 1 5Z" fill="white"/>
</svg>
