<svg width="7" height="15" viewBox="0 0 7 15" fill="none" xmlns="http://www.w3.org/2000/svg">
<path fill-rule="evenodd" clip-rule="evenodd" d="M1.5 5C1.77614 5 2 4.77614 2 4.5C2 4.22386 1.77614 4 1.5 4C1.22386 4 1 4.22386 1 4.5C1 4.77614 1.22386 5 1.5 5ZM1.5 6C2.32843 6 3 5.32843 3 4.5C3 3.67157 2.32843 3 1.5 3C0.671573 3 0 3.67157 0 4.5C0 5.32843 0.671573 6 1.5 6Z" fill="white"/>
<path fill-rule="evenodd" clip-rule="evenodd" d="M5.5 11C5.77614 11 6 10.7761 6 10.5C6 10.2239 5.77614 10 5.5 10C5.22386 10 5 10.2239 5 10.5C5 10.7761 5.22386 11 5.5 11ZM5.5 12C6.32843 12 7 11.3284 7 10.5C7 9.67157 6.32843 9 5.5 9C4.67157 9 4 9.67157 4 10.5C4 11.3284 4.67157 12 5.5 12Z" fill="white"/>
<path fill-rule="evenodd" clip-rule="evenodd" d="M6.90001 3.8L0.900006 11.8L0.100006 11.2L6.10001 3.2L6.90001 3.8Z" fill="white"/>
</svg>
