<svg width="9" height="15" viewBox="0 0 9 15" fill="none" xmlns="http://www.w3.org/2000/svg">
<path fill-rule="evenodd" clip-rule="evenodd" d="M2.5 3C0 3 0 5.5 0 5.5V9.5C0 9.5 0 12 2.5 12H6.5C9 12 9 9.5 9 9.5V5.5C9 5.5 9 3 6.5 3H2.5ZM1 5.5C1 5.5 1 4 2.5 4H6.5C8 4 8 5.5 8 5.5V9.5C8 9.5 8 11 6.5 11H2.5C1 11 1 9.5 1 9.5V5.5Z" fill="white"/>
<path fill-rule="evenodd" clip-rule="evenodd" d="M2.5 5.5H5C6.5 5.5 6.5 6.5 6.5 6.5V7.5C6.5 8 6 8 6 8C6 8 6.5 8 6.5 8.5V9.5H5.5V9C5.5 9 5.5 8.5 5 8.5H3.5V9.5H2.5V5.5ZM5 6.5H3.5V7.5H5C5.5 7.5 5.5 7 5.5 7C5.5 7 5.5 6.5 5 6.5Z" fill="white"/>
</svg>
