<svg width="9" height="15" viewBox="0 0 9 15" fill="none" xmlns="http://www.w3.org/2000/svg">
<g clip-path="url(#clip0_102_51)">
<path fill-rule="evenodd" clip-rule="evenodd" d="M6.5 5.50001L2.5 5.50001C-1.3391e-06 5.50001 3.49691e-07 8.00001 3.49691e-07 8.00001L-9.53674e-07 12L0.75 12L0.75 8.00001C0.75 8.00001 0.750001 6.25 2.5 6.25L6.5 6.25C8.25 6.25 8.25 8.00001 8.25 8.00001L8.25 11.25L6.5 11.25L6.5 8.00001L4 8.00001C2.5 8.00001 2.5 9.5 2.5 9.5L2.5 10.5C2.5 10.5 2.5 12 4 12L9 12L9 8.00001C9 8.00001 9 5.50001 6.5 5.50001ZM5.75 8.75L4 8.75C3.25 8.75 3.25 9.5 3.25 9.5L3.25 10.5C3.25 10.5 3.25 11.25 4 11.25L5.75 11.25L5.75 8.75Z" fill="white"/>
</g>
<defs>
<clipPath id="clip0_102_51">
<rect width="9" height="15" fill="white"/>
</clipPath>
</defs>
</svg>
