<svg width="9" height="15" viewBox="0 0 9 15" fill="none" xmlns="http://www.w3.org/2000/svg">
<path fill-rule="evenodd" clip-rule="evenodd" d="M2.5 3C0 3 0 5.5 0 5.5V9.5C0 9.5 0 12 2.5 12H6.5C9 12 9 9.5 9 9.5V5.5C9 5.5 9 3 6.5 3H2.5ZM0.75 5.5C0.75 5.5 0.75 3.75 2.5 3.75H6.5C8.25 3.75 8.25 5.5 8.25 5.5V9.5C8.25 9.5 8.25 11.25 6.5 11.25H2.5C0.75 11.25 0.75 9.5 0.75 9.5V5.5Z" fill="white"/>
<path d="M6.5 5.5V6.25H4C3.25 6.25 3.25 7 3.25 7V8C3.25 8 3.25 8.75 4 8.75H6.5V9.5H4C2.5 9.5 2.5 8 2.5 8V7C2.5 7 2.5 5.5 4 5.5H6.5Z" fill="white"/>
</svg>
