<svg width="4" height="15" viewBox="0 0 4 15" fill="none" xmlns="http://www.w3.org/2000/svg">
<g clip-path="url(#clip0_102_123)">
<path fill-rule="evenodd" clip-rule="evenodd" d="M0.598404 3.95196C0.379601 4.2441 0.25 4.60692 0.25 5C0.25 5.39309 0.379601 5.7559 0.598404 6.04804L0 6.64645L0.353554 7L0.951957 6.4016C1.2441 6.6204 1.60692 6.75 2 6.75C2.39308 6.75 2.7559 6.6204 3.04804 6.4016L3.64645 7L4 6.64645L3.4016 6.04804C3.6204 5.7559 3.75 5.39309 3.75 5C3.75 4.60692 3.6204 4.2441 3.4016 3.95196L4 3.35356L3.64645 3L3.04804 3.59841C2.7559 3.3796 2.39308 3.25 2 3.25C1.60692 3.25 1.2441 3.3796 0.951957 3.59841L0.353553 3L0 3.35356L0.598404 3.95196ZM2 3.75C1.30964 3.75 0.75 4.30965 0.75 5C0.75 5.69036 1.30964 6.25 2 6.25C2.69036 6.25 3.25 5.69036 3.25 5C3.25 4.30965 2.69036 3.75 2 3.75Z" fill="white"/>
</g>
<defs>
<clipPath id="clip0_102_123">
<rect width="4" height="15" fill="white"/>
</clipPath>
</defs>
</svg>
