<svg width="8" height="15" viewBox="0 0 8 15" fill="none" xmlns="http://www.w3.org/2000/svg">
<path d="M0.5 7V3.75H0V3L1.25 3V7L0.5 7Z" fill="white"/>
<path d="M5 8.75H7C7.25 8.75 7.25 9 7.25 9V9.25C7.25 9.25 7.25 9.625 7.03656 9.625H6C5 9.625 5 10.7813 5 10.7813V12H8V11.25H5.75L5.75 10.7813C5.75 10.7813 5.75 10.375 6 10.375H7C8 10.375 8 9.25 8 9.25V9C8 9 8 8 7 8H5V8.75Z" fill="white"/>
<path fill-rule="evenodd" clip-rule="evenodd" d="M5.5 3.16771L1 12.1677L0.32918 11.8323L4.82918 2.8323L5.5 3.16771Z" fill="white"/>
</svg>
