<svg width="7" height="15" viewBox="0 0 7 15" fill="none" xmlns="http://www.w3.org/2000/svg">
<path fill-rule="evenodd" clip-rule="evenodd" d="M1.5 5.25C1.91421 5.25 2.25 4.91422 2.25 4.5C2.25 4.08579 1.91421 3.75 1.5 3.75C1.08579 3.75 0.75 4.08579 0.75 4.5C0.75 4.91422 1.08579 5.25 1.5 5.25ZM1.5 6C2.32843 6 3 5.32843 3 4.5C3 3.67157 2.32843 3 1.5 3C0.671573 3 0 3.67157 0 4.5C0 5.32843 0.671573 6 1.5 6Z" fill="white"/>
<path fill-rule="evenodd" clip-rule="evenodd" d="M5.5 11.25C5.91421 11.25 6.25 10.9142 6.25 10.5C6.25 10.0858 5.91421 9.75 5.5 9.75C5.08579 9.75 4.75 10.0858 4.75 10.5C4.75 10.9142 5.08579 11.25 5.5 11.25ZM5.5 12C6.32843 12 7 11.3284 7 10.5C7 9.67157 6.32843 9 5.5 9C4.67157 9 4 9.67157 4 10.5C4 11.3284 4.67157 12 5.5 12Z" fill="white"/>
<path fill-rule="evenodd" clip-rule="evenodd" d="M6.8 3.725L0.799997 11.725L0.199997 11.275L6.2 3.275L6.8 3.725Z" fill="white"/>
</svg>
