<svg width="4" height="15" viewBox="0 0 4 15" fill="none" xmlns="http://www.w3.org/2000/svg">
<path fill-rule="evenodd" clip-rule="evenodd" d="M0.5 12V11.25H2C2.75 11.25 2.75 10.5 2.75 10.5V9.5H1.5C0 9.5 0 8 0 8V7C0 6 0.5 5.75 0.5 5.75V4.5C0.5 4.5 0.5 3 2 3H3.5V3.75H2C1.25 3.75 1.25 4.5 1.25 4.5V5.5H2.5C4 5.5 4 7 4 7V8C4 9 3.5 9.25 3.5 9.25V10.5C3.5 10.5 3.5 12 2 12H0.5ZM1.5 8.75C0.75 8.75 0.75 8 0.75 8V7C0.75 7 0.75 6.25 1.5 6.25H2.5C3.25 6.25 3.25 7 3.25 7V8C3.25 8 3.25 8.75 2.5 8.75H1.5Z" fill="white"/>
</svg>
