<svg width="8" height="15" viewBox="0 0 8 15" fill="none" xmlns="http://www.w3.org/2000/svg">
<path fill-rule="evenodd" clip-rule="evenodd" d="M0.958246 11.0036L0.302658 11.8465L0.697334 12.1535L1.28639 11.3961C1.6563 11.7441 2.20022 12 3 12H5C7.5 12 7.5 9.5 7.5 9.5V5.5C7.5 5.5 7.5 4.69329 7.04175 3.99638L7.69733 3.15348L7.30266 2.84651L6.71361 3.60386C6.34369 3.25585 5.79977 3 5 3H3C0.499996 3 0.499996 5.5 0.499996 5.5V9.5C0.499996 9.5 0.499996 10.3067 0.958246 11.0036ZM6.3982 4.00938C6.10193 3.71767 5.6598 3.5 5 3.5H3C0.999996 3.5 0.999996 5.5 0.999996 5.5V9.5C0.999996 9.5 0.999996 10.0524 1.29034 10.5766L6.3982 4.00938ZM6.70965 4.42336C7 4.94755 7 5.5 7 5.5V9.5C7 9.5 7 11.5 5 11.5H3C2.3402 11.5 1.89806 11.2823 1.60179 10.9906L6.70965 4.42336Z" fill="white"/>
</svg>
