<svg width="7" height="15" viewBox="0 0 7 15" fill="none" xmlns="http://www.w3.org/2000/svg">
<g clip-path="url(#clip0_8_331)">
<path d="M5.5 -3.57628e-07L4.5 -4.45051e-07C4 -4.88762e-07 3.5 1 3.5 1C3.5 1 3 -5.76185e-07 2.5 -6.19896e-07L1.5 -7.07319e-07L1.5 0.5L2 0.5C3 0.5 3 1.5 3 1.5L4 1.5C4 1.5 4 0.5 5 0.5L5.5 0.5L5.5 -3.57628e-07Z" fill="white"/>
<path d="M6.5 3.5V3H2.5C0 3 0 5.5 0 5.5V5.75C0 5.75 0 7.75 2.5 7.75H4.5C6.5 7.75 6.5 9.25 6.5 9.25V9.5C6.5 9.5 6.5 11.5 4.5 11.5H0.5V12H4.5C7 12 7 9.5 7 9.5V9.25C7 9.25 7 7.25 4.5 7.25H2.5C0.5 7.25 0.5 5.75 0.5 5.75V5.5C0.5 5.5 0.5 3.5 2.5 3.5L6.5 3.5Z" fill="white"/>
</g>
<defs>
<clipPath id="clip0_8_331">
<rect width="7" height="15" fill="white"/>
</clipPath>
</defs>
</svg>
