<svg width="7" height="15" viewBox="0 0 7 15" fill="none" xmlns="http://www.w3.org/2000/svg">
<g clip-path="url(#clip0_8_336)">
<path d="M1.3868e-06 3.5L1.43051e-06 3L7 3L7 3.5C7 7.75 3.5 7.75 3.5 7.75C3.5 7.75 0.5 7.75 0.5 11.5L7 11.5L7 12L1.66869e-07 12L2.10581e-07 11.5C1.5358e-06 7.25 3.5 7.25 3.5 7.25C3.5 7.25 6.5 7.25 6.5 3.5L1.3868e-06 3.5Z" fill="white"/>
<path d="M5.5 -3.57628e-07L4.5 -4.45051e-07C4 -4.88762e-07 3.5 1 3.5 1C3.5 1 3 -5.76185e-07 2.5 -6.19896e-07L1.5 -7.07319e-07L1.5 0.5L2 0.5C3 0.5 3 1.5 3 1.5L4 1.5C4 1.5 4 0.5 5 0.5L5.5 0.5L5.5 -3.57628e-07Z" fill="white"/>
</g>
<defs>
<clipPath id="clip0_8_336">
<rect width="7" height="15" fill="white"/>
</clipPath>
</defs>
</svg>
