<svg width="5" height="15" viewBox="0 0 5 15" fill="none" xmlns="http://www.w3.org/2000/svg">
<g clip-path="url(#clip0_2_362)">
<path fill-rule="evenodd" clip-rule="evenodd" d="M-4.29137e-07 5.99999L-3.97233e-08 7L3 7C3.5 7 3.5 7.5 3.5 7.5L3.5 8.5L1.5 8.5C-1.70857e-07 8.5 1.74846e-07 10 1.74846e-07 10L1.31134e-07 10.5C1.31134e-07 10.5 0 12 1.5 12L4.5 12L4.5 7.5C4.5 6 3 6 3 6L-4.29137e-07 5.99999ZM3.5 9.5L1.5 9.5C0.999999 9.5 0.999999 10 0.999999 10L0.999999 10.5C0.999999 10.5 1 11 1.5 11L3.5 11L3.5 9.5Z" fill="white"/>
</g>
<defs>
<clipPath id="clip0_2_362">
<rect width="5" height="15" fill="white"/>
</clipPath>
</defs>
</svg>
