<svg width="5" height="15" viewBox="0 0 5 15" fill="none" xmlns="http://www.w3.org/2000/svg">
<g clip-path="url(#clip0_2_364)">
<path fill-rule="evenodd" clip-rule="evenodd" d="M-3.20673e-06 10.5C-3.20673e-06 10.5 0 12 1.5 12L3 12C4.5 12 4.5 10.5 4.5 10.5L4.5 7.5C4.5 7.5 4.5 6 3 6L1 6L1 3L-3.02789e-06 3L-3.20673e-06 10.5ZM1.5 11L3 11C3.5 11 3.5 10.5 3.5 10.5L3.5 7.5C3.5 7.5 3.5 7 3 7L1 7L1 10.5C1 10.5 1 11 1.5 11Z" fill="white"/>
</g>
<defs>
<clipPath id="clip0_2_364">
<rect width="5" height="15" fill="white"/>
</clipPath>
</defs>
</svg>
