<svg width="5" height="15" viewBox="0 0 5 15" fill="none" xmlns="http://www.w3.org/2000/svg">
<g clip-path="url(#clip0_2_368)">
<path fill-rule="evenodd" clip-rule="evenodd" d="M4.5 10.5C4.5 10.5 4.5 12 3 12L1.5 12C3.57628e-07 12 3.93403e-07 10.5 3.93403e-07 10.5L3.93402e-07 7.5C3.93402e-07 7.5 4.05327e-07 6 1.5 6L3.5 6L3.5 3L4.5 3L4.5 10.5ZM3 11L1.5 11C1 11 1 10.5 1 10.5L1 7.5C1 7.5 1 7 1.5 7L3.5 7L3.5 10.5C3.5 10.5 3.5 11 3 11Z" fill="white"/>
</g>
<defs>
<clipPath id="clip0_2_368">
<rect width="5" height="15" fill="white"/>
</clipPath>
</defs>
</svg>
