<svg width="5" height="15" viewBox="0 0 5 15" fill="none" xmlns="http://www.w3.org/2000/svg">
<g clip-path="url(#clip0_2_392)">
<path fill-rule="evenodd" clip-rule="evenodd" d="M-1.31134e-07 7.5C-1.31134e-07 7.5 0 6 1.5 6L3 6C4.5 6 4.5 7.5 4.5 7.5L4.5 10.5C4.5 10.5 4.5 12 3 12L1 12L1 15L6.43706e-07 15L-1.31134e-07 7.5ZM1 7.5C1 7.5 1 7 1.5 7L3 7C3.5 7 3.5 7.5 3.5 7.5L3.5 10.5C3.5 10.5 3.5 11 3 11L1 11L1 7.5Z" fill="white"/>
</g>
<defs>
<clipPath id="clip0_2_392">
<rect width="5" height="15" fill="white"/>
</clipPath>
</defs>
</svg>
