<svg width="5" height="15" viewBox="0 0 5 15" fill="none" xmlns="http://www.w3.org/2000/svg">
<g clip-path="url(#clip0_2_394)">
<path fill-rule="evenodd" clip-rule="evenodd" d="M4.5 7.5C4.5 7.5 4.5 6 3 6L1.5 6C-1.19209e-07 6 0 7.5 0 7.5L0 10.5C0 10.5 -4.76995e-08 12 1.5 12L3.5 12L3.5 15L4.5 15L4.5 7.5ZM3.5 7.5C3.5 7.5 3.5 7 3 7L1.5 7C1 7 1 7.5 1 7.5L1 10.5C1 10.5 1 11 1.5 11L3.5 11L3.5 7.5Z" fill="white"/>
</g>
<defs>
<clipPath id="clip0_2_394">
<rect width="5" height="15" fill="white"/>
</clipPath>
</defs>
</svg>
