<svg width="5" height="15" viewBox="0 0 5 15" fill="none" xmlns="http://www.w3.org/2000/svg">
<g clip-path="url(#clip0_2_408)">
<path d="M3.5 8L3.5 6L4.5 6L4.5 8C4.5 8.5 3.5 9 3.5 9C3.5 9 4.5 9.5 4.5 10L4.5 12L3.5 12L3.5 10C3.5 10 3.5 9.5 3 9.5L1.5 9.5C1 9.5 1 10 1 10L1 12L-4.76837e-07 12L-3.01992e-07 10C2.18557e-07 9.5 1 9 1 9C1 9 -1.70857e-07 8.5 -6.03983e-07 8L-4.29138e-07 6L1 6L1 8C1 8 1 8.5 1.5 8.5L3 8.5C3.5 8.5 3.5 8 3.5 8Z" fill="white"/>
</g>
<defs>
<clipPath id="clip0_2_408">
<rect width="5" height="15" fill="white"/>
</clipPath>
</defs>
</svg>
