<svg width="5" height="15" viewBox="0 0 5 15" fill="none" xmlns="http://www.w3.org/2000/svg">
<g clip-path="url(#clip0_102_344)">
<path fill-rule="evenodd" clip-rule="evenodd" d="M2.51532e-06 10.5C2.51532e-06 10.5 2.38419e-06 12 1.5 12L3 12C4.5 12 4.5 10.5 4.5 10.5L4.5 7.5C4.5 7.5 4.5 6 3 6L0.749999 6L0.749999 3L-6.43706e-07 3L2.51532e-06 10.5ZM1.5 11.25L3 11.25C3.75 11.25 3.75 10.5 3.75 10.5L3.75 7.5C3.75 7.5 3.75 6.75 3 6.75L0.749998 6.75L0.749999 10.5C0.749999 10.5 0.749999 11.25 1.5 11.25Z" fill="white"/>
</g>
<defs>
<clipPath id="clip0_102_344">
<rect width="5" height="15" fill="white"/>
</clipPath>
</defs>
</svg>
