<svg width="5" height="15" viewBox="0 0 5 15" fill="none" xmlns="http://www.w3.org/2000/svg">
<g clip-path="url(#clip0_102_370)">
<path fill-rule="evenodd" clip-rule="evenodd" d="M1.31134e-07 10.5C1.31134e-07 10.5 -4.76837e-07 12 1.5 12L3 12C4.5 12 4.5 10.5 4.5 10.5L4.5 7.5C4.5 7.5 4.5 6 3 6L1.5 6C-4.29138e-07 6 -8.34347e-08 7.5 -8.34347e-08 7.5L1.31134e-07 10.5ZM3.75 7.5C3.75 7.5 3.75 6.75 3 6.75L1.5 6.75C0.75 6.75 0.75 7.5 0.75 7.5L0.75 10.5C0.75 10.5 0.75 11.25 1.5 11.25L3 11.25C3.75 11.25 3.75 10.5 3.75 10.5L3.75 7.5Z" fill="white"/>
</g>
<defs>
<clipPath id="clip0_102_370">
<rect width="5" height="15" fill="white"/>
</clipPath>
</defs>
</svg>
