<svg width="5" height="15" viewBox="0 0 5 15" fill="none" xmlns="http://www.w3.org/2000/svg">
<g clip-path="url(#clip0_102_388)">
<path d="M3.75 7.5L3.75 6L4.5 6L4.5 7.5C4.5 8.5 3.5 9 3.5 9C3.5 9 4.5 9.5 4.5 10.5L4.5 12L3.75 12L3.75 10.5C3.75 10.5 3.75 9.375 2.5 9.375L2 9.375C0.749999 9.375 0.75 10.5 0.75 10.5L0.75 12L-4.76837e-07 12L-3.45703e-07 10.5C-7.35117e-07 9.5 1 9 1 9C1 9 -1.70858e-07 8.5 -5.60272e-07 7.5L-4.29138e-07 6L0.75 6L0.749999 7.5C0.749999 7.5 0.749999 8.625 2 8.625L2.5 8.625C3.75 8.625 3.75 7.5 3.75 7.5Z" fill="white"/>
</g>
<defs>
<clipPath id="clip0_102_388">
<rect width="5" height="15" fill="white"/>
</clipPath>
</defs>
</svg>
