<svg width="6" height="15" viewBox="0 0 6 15" fill="none" xmlns="http://www.w3.org/2000/svg">
<path d="M0.499978 4.5L0.5 3H3.50001C6.00001 3 6.00001 5.5 6.00001 5.5V5.75C6.00001 7 5.00001 7.5 5.00001 7.5C5.00001 7.5 6.00001 8 6.00001 9.25V9.5C6.00001 9.5 6.00001 12 3.50001 12H0.5V10.5H3.50001C4.50001 10.5 4.50001 9.5 4.50001 9.5V9.25C4.50001 9.25 4.50001 8.25 3.49999 8.25H0.499978V6.75H3.49999C4.50001 6.75 4.50001 5.75 4.50001 5.75V5.5C4.50001 5.5 4.49999 4.5 3.49999 4.5H0.499978Z" fill="white"/>
</svg>
