<svg width="6" height="15" viewBox="0 0 6 15" fill="none" xmlns="http://www.w3.org/2000/svg">
<g clip-path="url(#clip0_2_1175)">
<path fill-rule="evenodd" clip-rule="evenodd" d="M0 5.5C0 5.5 2.38419e-07 3 2.5 3H3.5C6 3 6 5.5 6 5.5V5.75C6 7 5 7.5 5 7.5C5 7.5 6 8 6 9.25V9.5C6 9.5 6 12 3.5 12H2.5C2.38419e-07 12 0 9.5 0 9.5V9.25C-1.90419e-10 8 1 7.5 1 7.5C1 7.5 0 7 0 5.75V5.5ZM3.5 4.5H2.5C1.5 4.5 1.5 5.5 1.5 5.5V5.75C1.5 5.75 1.5 6.75 2.5 6.75H3.5C4.5 6.75 4.5 5.75 4.5 5.75V5.5C4.5 5.5 4.5 4.5 3.5 4.5ZM3.5 8.25H2.5C1.5 8.25 1.5 9.25 1.5 9.25V9.5C1.5 9.5 1.5 10.5 2.5 10.5H3.5C4.5 10.5 4.5 9.5 4.5 9.5V9.25C4.5 9.25 4.5 8.25 3.5 8.25Z" fill="white"/>
</g>
<defs>
<clipPath id="clip0_2_1175">
<rect width="6" height="15" fill="white"/>
</clipPath>
</defs>
</svg>
