<svg width="6" height="15" viewBox="0 0 6 15" fill="none" xmlns="http://www.w3.org/2000/svg">
<g clip-path="url(#clip0_2_1177)">
<path fill-rule="evenodd" clip-rule="evenodd" d="M0.5 10.5L0.5 12L3.5 12C6 12 6 9.5 6 9.5L6 5.5C6 5.5 6 3 3.5 3L2.5 3C7.86805e-07 3 5.68248e-07 5.5 5.68248e-07 5.5L5.46392e-07 5.75C5.46392e-07 5.75 3.27835e-07 8.25 2.5 8.25L4.5 8.25L4.5 9.5C4.5 9.5 4.5 10.5 3.5 10.5L0.5 10.5ZM4.5 5.5C4.5 5.5 4.5 4.5 3.5 4.5L2.5 4.5C1.5 4.5 1.5 5.5 1.5 5.5L1.5 5.75C1.5 5.75 1.5 6.75 2.5 6.75L4.5 6.75L4.5 5.5Z" fill="white"/>
</g>
<defs>
<clipPath id="clip0_2_1177">
<rect width="6" height="15" fill="white"/>
</clipPath>
</defs>
</svg>
