<svg width="5" height="15" viewBox="0 0 5 15" fill="none" xmlns="http://www.w3.org/2000/svg">
<g clip-path="url(#clip0_2_201)">
<path fill-rule="evenodd" clip-rule="evenodd" d="M1.31134e-07 10.5C1.31134e-07 10.5 0 12 1.5 12L3 12C4.5 12 4.5 10.5 4.5 10.5L4.5 7.5C4.5 7.5 4.5 6 3 6L1.5 6C4.76995e-08 6 -8.34347e-08 7.5 -8.34347e-08 7.5L1.31134e-07 10.5ZM3.5 7.5C3.5 7.5 3.5 7 3 7L1.5 7C1 7 1 7.5 1 7.5L1 10.5C1 10.5 1 11 1.5 11L3 11C3.5 11 3.5 10.5 3.5 10.5L3.5 7.5Z" fill="white"/>
<path d="M1.5 4V5H3C4.5 5 4.5 3.5 4.5 3.5V3H3.5V3.5C3.5 3.5 3.5 4 3 4H1.5Z" fill="white"/>
</g>
<defs>
<clipPath id="clip0_2_201">
<rect width="5" height="15" fill="white"/>
</clipPath>
</defs>
</svg>
