<svg width="6" height="15" viewBox="0 0 6 15" fill="none" xmlns="http://www.w3.org/2000/svg">
<g clip-path="url(#clip0_2_210)">
<path fill-rule="evenodd" clip-rule="evenodd" d="M4 12C5.5 12 5.5 10.5 5.5 10.5L5.5 7.5C5.5 7.5 5.5 7.01079 5.22062 6.59113L6 5.5L5.5 5L4.68896 6.13546C4.50446 6.05152 4.27799 6 4 6L2.5 6C1 6 1 7.5 1 7.5L1 10.5C1 10.5 1 10.7925 1.12916 11.1192L0.5 12L1 12.5L1.56131 11.7142C1.77893 11.8829 2.08092 12 2.5 12L4 12ZM2.5 7C2 7 2 7.5 2 7.5L2 9.9L4.06901 7.00339C4.04714 7.00117 4.02415 7 4 7L2.5 7ZM4 11C4.5 11 4.5 10.5 4.5 10.5L4.5 7.6L2.15753 10.8795C2.23151 10.9489 2.34023 11 2.5 11L4 11Z" fill="white"/>
</g>
<defs>
<clipPath id="clip0_2_210">
<rect width="6" height="15" fill="white"/>
</clipPath>
</defs>
</svg>
