<svg width="7" height="15" viewBox="0 0 7 15" fill="none" xmlns="http://www.w3.org/2000/svg">
<g clip-path="url(#clip0_2_215)">
<path fill-rule="evenodd" clip-rule="evenodd" d="M1 12C1 12 -4.96836e-08 12 8.74228e-08 11L8.24544e-07 7C9.59666e-07 6 1 6 1 6L6 6C7 6 7 7 7 7L7 9.5L4 9.5L4 10.5C4 10.5 4 11 4.5 11L7 11L7 12L1 12ZM1.5 7L2.5 7C3 7 3 7.5 3 7.5L3 10.5C3 10.5 3 11 2.5 11L1.5 11C1 11 1 10.5 1 10.5L1 7.5C1 7.5 1 7 1.5 7ZM6 8.5L6 7.5C6 7.5 6 7 5.5 7L4.5 7C4 7 4 7.5 4 7.5L4 8.5L6 8.5Z" fill="white"/>
</g>
<defs>
<clipPath id="clip0_2_215">
<rect width="7" height="15" fill="white"/>
</clipPath>
</defs>
</svg>
