<svg width="4" height="15" viewBox="0 0 4 15" fill="none" xmlns="http://www.w3.org/2000/svg">
<g clip-path="url(#clip0_2_240)">
<path d="M4 12V11H1V10C1 10 1 9.5 1.5 9.5H2.5C4 9.5 4 8 4 8V6H0V7H3V8C3 8 3 8.5 2.5 8.5H1.5C0 8.5 0 10 0 10V12H4Z" fill="white"/>
<path d="M4 3L3 3C2.5 3 2 4 2 4C2 4 1.5 3 1 3L1.74846e-07 3L8.74228e-08 4L0.5 4C1.5 4 1.5 5 1.5 5L2.5 5C2.5 5 2.5 4 3.5 4L4 4L4 3Z" fill="white"/>
</g>
<defs>
<clipPath id="clip0_2_240">
<rect width="4" height="15" fill="white"/>
</clipPath>
</defs>
</svg>
