<svg width="7" height="15" viewBox="0 0 7 15" fill="none" xmlns="http://www.w3.org/2000/svg">
<g clip-path="url(#clip0_2_1277)">
<path d="M-9.17912e-06 3L0 5C0 6.75 1.5 7.5 1.5 7.5C1.5 7.5 -2.24393e-05 8.25 -2.24393e-05 10L-9.17912e-06 12H1.49999V10C1.46973 8.25 3.49999 8.25 3.49999 8.25C3.49999 8.25 5.49999 8.25 5.49998 10L5.49999 12H6.99999L6.99998 10C6.99998 8.25 5.49999 7.5 5.49999 7.5C5.49999 7.5 6.99999 6.75 6.99998 5L6.99999 3H5.49999V5C5.49998 6.75 3.49999 6.75 3.49999 6.75C3.49999 6.75 1.50001 6.75 1.49999 5V3H-9.17912e-06Z" fill="white"/>
</g>
<defs>
<clipPath id="clip0_2_1277">
<rect width="7" height="15" fill="white"/>
</clipPath>
</defs>
</svg>
