<svg width="5" height="15" viewBox="0 0 5 15" fill="none" xmlns="http://www.w3.org/2000/svg">
<g clip-path="url(#clip0_8_370)">
<path fill-rule="evenodd" clip-rule="evenodd" d="M-1.31134e-07 7.5C-1.31134e-07 7.5 0 6 1.5 6L3 6C4.5 6 4.5 7.5 4.5 7.5L4.5 10.5C4.5 10.5 4.5 12 3 12L0.5 12L0.5 15L6.43706e-07 15L-1.31134e-07 7.5ZM0.5 7.5C0.5 7.5 0.5 6.5 1.5 6.5L3 6.5C4 6.5 4 7.5 4 7.5L4 10.5C4 10.5 4 11.5 3 11.5L0.500001 11.5L0.5 7.5Z" fill="white"/>
</g>
<defs>
<clipPath id="clip0_8_370">
<rect width="5" height="15" fill="white"/>
</clipPath>
</defs>
</svg>
