<svg width="8" height="15" viewBox="0 0 8 15" fill="none" xmlns="http://www.w3.org/2000/svg">
<g clip-path="url(#clip0_2_290)">
<path fill-rule="evenodd" clip-rule="evenodd" d="M5.5 3L1.00003 3L1.00003 7L3.09547e-05 7L3.49691e-07 8L1.00003 8L1.00003 12L5.5 12C8.00003 12 8.00003 10 8.00003 10L8.00003 5.5C8.00003 5.5 8 3 5.5 3ZM7 9.5C7 9.5 7 11 5.5 11L2 11L2 8L4.5 8L4.50003 7L2 7L2 4L5.5 4C7 4 7 5.5 7 5.5L7 9.5Z" fill="white"/>
</g>
<defs>
<clipPath id="clip0_2_290">
<rect width="8" height="15" fill="white"/>
</clipPath>
</defs>
</svg>
