<svg width="8" height="15" viewBox="0 0 8 15" fill="none" xmlns="http://www.w3.org/2000/svg">
<path fill-rule="evenodd" clip-rule="evenodd" d="M0.5 5.5C0.5 5.5 0.5 3 3 3H5C5.76483 3 6.29567 3.23399 6.66411 3.55879L7.5 2.5L8 3L7.11693 4.11855C7.5 4.78414 7.5 5.5 7.5 5.5V9.5C7.5 9.5 7.5 12 5 12H3C2.23517 12 1.70433 11.766 1.33589 11.4412L0.5 12.5L0 12L0.883065 10.8815C0.5 10.2159 0.5 9.5 0.5 9.5V5.5ZM1.5 5.5C1.5 5.5 1.5 4 3 4H5C5.48052 4 5.80711 4.15393 6.02907 4.36317L1.58465 9.99277C1.5 9.72069 1.5 9.5 1.5 9.5V5.5ZM5 11H3C2.51948 11 2.19289 10.8461 1.97093 10.6368L6.41535 5.00723C6.5 5.27931 6.5 5.5 6.5 5.5V9.5C6.5 9.5 6.5 11 5 11Z" fill="white"/>
</svg>
