<svg width="7" height="15" viewBox="0 0 7 15" fill="none" xmlns="http://www.w3.org/2000/svg">
<g clip-path="url(#clip0_2_332)">
<path d="M6.5 4V3H2.5C0 3 0 5 0 5V6C0 6 0 8 2.5 8H4.5C6 8 6 9 6 9V10C6 10 6 11 4.5 11H0.5V12H4.5C7 12 7 10 7 10V9C7 9 7 7 4.5 7H2.5C1 7 1 6 1 6V5C1 5 1 4 2.5 4L6.5 4Z" fill="white"/>
<path d="M5.5 0L4.5 -8.74228e-08C4 -1.31134e-07 3.5 1 3.5 1C3.5 1 3 -2.18557e-07 2.5 -2.62268e-07L1.5 -3.49691e-07L1.5 1L2 1C3 1 3 2 3 2L4 2C4 2 4 1 5 1L5.5 1L5.5 0Z" fill="white"/>
</g>
<defs>
<clipPath id="clip0_2_332">
<rect width="7" height="15" fill="white"/>
</clipPath>
</defs>
</svg>
