<svg width="7" height="15" viewBox="0 0 7 15" fill="none" xmlns="http://www.w3.org/2000/svg">
<g clip-path="url(#clip0_2_337)">
<path d="M1.34309e-06 4L1.43051e-06 3L7 3L7 4C7 8 3.5 8 3.5 8C3.5 8 1 8.5 1 11L7 11L7 12L1.66869e-07 12L-2.22545e-07 11C1.27146e-07 7 3.5 7 3.5 7C3.5 7 6 6.5 6 4L1.34309e-06 4Z" fill="white"/>
<path d="M5.5 0L4.5 -8.74228e-08C4 -1.31134e-07 3.5 1 3.5 1C3.5 1 3 -2.18557e-07 2.5 -2.62268e-07L1.5 -3.49691e-07L1.5 1L2 1C3 1 3 2 3 2L4 2C4 2 4 1 5 1L5.5 1L5.5 0Z" fill="white"/>
</g>
<defs>
<clipPath id="clip0_2_337">
<rect width="7" height="15" fill="white"/>
</clipPath>
</defs>
</svg>
