<svg width="8" height="15" viewBox="0 0 8 15" fill="none" xmlns="http://www.w3.org/2000/svg">
<g clip-path="url(#clip0_29_275)">
<path fill-rule="evenodd" clip-rule="evenodd" d="M6.00003 3L1.00003 3L1 6.5L4.80825e-07 6.5L3.0598e-07 8.5L1.00003 8.5L1.00003 12L6.00003 12C8.00004 12 8.00003 10 8.00003 10L8.00003 5C8.00003 5 8 3 6.00003 3ZM6.00003 9C6.00003 9 6.00003 10 5.00003 10L3.00003 10L3 8.5L4.5 8.5L4.5 6.5L3 6.5L3.00003 5L5.00003 5C6.00003 5 6.00003 6 6.00003 6L6.00003 9Z" fill="white"/>
</g>
<defs>
<clipPath id="clip0_29_275">
<rect width="8" height="15" fill="white"/>
</clipPath>
</defs>
</svg>
