<svg width="9" height="15" viewBox="0 0 9 15" fill="none" xmlns="http://www.w3.org/2000/svg">
<path fill-rule="evenodd" clip-rule="evenodd" d="M1.03383 10.3277L0.210648 11.386L1.78935 12.6139L2.33482 11.9126C2.52742 11.9682 2.74781 12 3 12H6C8 12 8 9.99999 8 9.99999V4.99999C8 4.99999 8 4.86821 7.96617 4.6723L8.78935 3.61393L7.21065 2.38605L6.66518 3.08737C6.47258 3.03179 6.25219 2.99999 6 2.99999H3C1 2.99999 1 4.99999 1 4.99999V9.99999C1 9.99999 1 10.1318 1.03383 10.3277ZM5.16951 5.01037C5.11647 5.00359 5.06004 4.99999 5 4.99999H4C3 4.99999 3 5.99999 3 5.99999V7.79974L5.16951 5.01037ZM6 7.20024V8.99999C6 8.99999 6 9.99999 5 9.99999H4C3.93996 9.99999 3.88353 9.99638 3.83049 9.98961L6 7.20024Z" fill="white"/>
</svg>
