<svg width="7" height="15" viewBox="0 0 7 15" fill="none" xmlns="http://www.w3.org/2000/svg">
<g clip-path="url(#clip0_29_309)">
<path d="M9.93398e-07 5L1.16824e-06 3L7 3L7 5C7 8 3.5 8.5 3.5 8.5C3.5 8.5 2 9 2 10L5 10L7 10L7 12L-9.53991e-08 12L7.94465e-08 10C-1.35122e-07 7 3.5 6.5 3.5 6.5C3.5 6.5 5 6 5 5L9.93398e-07 5Z" fill="white"/>
<path d="M2.5 2.5L4.5 2.5C4.5 2.5 4.5 2 5 2L5.5 2L5.5 -1.31134e-07L4.5 -1.32875e-07C4 0 3.5 0.5 3.5 0.5C3.5 0.5 3 0 2.5 -2.24701e-09L1.5 -1.34373e-07L1.5 2L2 2C2.5 2 2.5 2.5 2.5 2.5Z" fill="white"/>
</g>
<defs>
<clipPath id="clip0_29_309">
<rect width="7" height="15" fill="white"/>
</clipPath>
</defs>
</svg>
