<svg width="6" height="15" viewBox="0 0 6 15" fill="none" xmlns="http://www.w3.org/2000/svg">
<path fill-rule="evenodd" clip-rule="evenodd" d="M0 5.5C0 5.5 0 3 2.5 3H3.5C6 3 6 5.5 6 5.5C6 7 5 7.5 5 7.5C5 7.5 6 8 6 9.5C6 9.5 6 12 3.5 12H2.5C0 12 0 9.5 0 9.5C0 8 1 7.5 1 7.5C1 7.5 0 7 0 5.5ZM5.5 5.5C5.5 5.5 5.5 3.5 3.5 3.5H2.5C0.5 3.5 0.5 5.5 0.5 5.5C0.5 5.5 0.5 7.25 2.5 7.25H3.5C5.5 7.25 5.5 5.5 5.5 5.5ZM3.5 7.75H2.5C0.5 7.75 0.5 9.5 0.5 9.5C0.5 9.5 0.5 11.5 2.5 11.5H3.5C5.5 11.5 5.5 9.5 5.5 9.5C5.5 9.5 5.5 7.75 3.5 7.75Z" fill="white"/>
</svg>
