<svg width="7" height="15" viewBox="0 0 7 15" fill="none" xmlns="http://www.w3.org/2000/svg">
<g clip-path="url(#clip0_2_921)">
<path fill-rule="evenodd" clip-rule="evenodd" d="M6.99999 12H2.49999C-6.67572e-06 12 -6.73616e-06 9.5 -6.73616e-06 9.5V9.25C-6.73616e-06 9.25 0 6.75 2.00002 6.75L1.99999 5.5C1.99999 5.5 1.99999 3 4.49999 3C6.99999 3 6.99999 5.5 6.99999 5.5L7 5.75C7 5.75 7 8.25 5.25 8.25V10.5H6.99999V12ZM2.49999 10.5H3.74999L3.75001 8.25H2.50001C1.49999 8.25 1.49999 9.25 1.49999 9.25V9.5C1.49999 9.5 1.49999 10.5 2.49999 10.5ZM4.49999 6.75H3.49999V5.5C3.49999 5.5 3.49999 4.5 4.49999 4.5C5.49999 4.5 5.49999 5.5 5.49999 5.5V5.75C5.49999 5.75 5.49999 6.75 4.49999 6.75Z" fill="white"/>
</g>
<defs>
<clipPath id="clip0_2_921">
<rect width="7" height="15" fill="white"/>
</clipPath>
</defs>
</svg>
