<svg width="9" height="15" viewBox="0 0 9 15" fill="none" xmlns="http://www.w3.org/2000/svg">
<g clip-path="url(#clip0_2_923)">
<path fill-rule="evenodd" clip-rule="evenodd" d="M7 5.49997L2 5.5C-1.3391e-06 5.5 -5.60272e-07 7.5 -5.60272e-07 7.5L-9.53674e-07 12L1.5 12L1.5 7.99999C1.5 7.99999 1.5 7 2.5 6.99999L5 6.99999L6.5 6.99997C7.5 6.99999 7.5 7.99997 7.5 7.99997L7.5 10.5L6.5 10.5L6.5 8L3.5 8C2.5 8 2.5 9 2.5 9L2.5 11C2.5 11 2.5 12 3.5 12L9 12L9 7.49997C9 7.49997 9 5.49997 7 5.49997ZM5 9.49999L4 9.49999L4 10.5L5 10.5L5 9.49999Z" fill="white"/>
</g>
<defs>
<clipPath id="clip0_2_923">
<rect width="9" height="15" fill="white"/>
</clipPath>
</defs>
</svg>
