<svg width="5" height="15" viewBox="0 0 5 15" fill="none" xmlns="http://www.w3.org/2000/svg">
<g clip-path="url(#clip0_2_995)">
<path fill-rule="evenodd" clip-rule="evenodd" d="M0.658274 4.71893C0.556377 4.9589 0.500009 5.22287 0.500009 5.50001C0.500009 5.77714 0.556376 6.04111 0.658271 6.28108L0 6.93935L1.06066 8.00001L1.71893 7.34174C1.9589 7.44364 2.22287 7.50001 2.50001 7.50001C2.77715 7.50001 3.04112 7.44364 3.28108 7.34174L3.93935 8.00001L5.00001 6.93935L4.34174 6.28108C4.44364 6.04112 4.50001 5.77715 4.50001 5.50001C4.50001 5.22287 4.44364 4.9589 4.34174 4.71893L5.00001 4.06066L3.93935 3L3.28108 3.65827C3.04111 3.55638 2.77714 3.50001 2.50001 3.50001C2.22287 3.50001 1.9589 3.55638 1.71893 3.65827L1.06066 3L1.15484e-07 4.06066L0.658274 4.71893ZM2.50001 6.00001C2.77615 6.00001 3.00001 5.77615 3.00001 5.50001C3.00001 5.22387 2.77615 5.00001 2.50001 5.00001C2.22387 5.00001 2.00001 5.22387 2.00001 5.50001C2.00001 5.77615 2.22387 6.00001 2.50001 6.00001Z" fill="white"/>
</g>
<defs>
<clipPath id="clip0_2_995">
<rect width="5" height="15" fill="white"/>
</clipPath>
</defs>
</svg>
