<svg width="9" height="15" viewBox="0 0 9 15" fill="none" xmlns="http://www.w3.org/2000/svg">
<path fill-rule="evenodd" clip-rule="evenodd" d="M2 3C0 3 0 5 0 5V10C0 10 0 12 2 12H7C9 12 9 10 9 10V5C9 5 9 3 7 3H2ZM1.5 5C1.5 5 1.5 4.5 2 4.5H7C7.5 4.5 7.5 5 7.5 5V10C7.5 10 7.5 10.5 7 10.5H2C1.5 10.5 1.5 10 1.5 10V5Z" fill="white"/>
<path fill-rule="evenodd" clip-rule="evenodd" d="M2.5 5.5H5.5C6.5 5.5 6.5 6.5 6.5 6.5V7.5C6.5 8 6 8 6 8C6 8 6.5 8 6.5 8.5V9.5H5V8.5H4V9.5H2.5V5.5ZM5 6.5H4V7.5H5V6.5Z" fill="white"/>
</svg>
