<svg width="8" height="15" viewBox="0 0 8 15" fill="none" xmlns="http://www.w3.org/2000/svg">
<g clip-path="url(#clip0_102_291)">
<path fill-rule="evenodd" clip-rule="evenodd" d="M5.49999 3L1 3L1 7.125L-5.27488e-07 7.125L-5.93055e-07 7.875L1 7.875L1 12L5.50002 12C8 12 8 9.5 8 9.5L8 5.5C8 5.5 8 3 5.49999 3ZM7.25003 9.5C7.25003 9.5 7.25 11.25 5.5 11.25L1.75 11.25L1.75 7.875L4.50002 7.875L4.50002 7.125L1.75 7.125L1.75 3.75L5.5 3.75C7.25 3.75 7.25 5.5 7.25 5.5L7.25003 9.5Z" fill="white"/>
</g>
<defs>
<clipPath id="clip0_102_291">
<rect width="8" height="15" fill="white"/>
</clipPath>
</defs>
</svg>
