<svg width="7" height="15" viewBox="0 0 7 15" fill="none" xmlns="http://www.w3.org/2000/svg">
<path fill-rule="evenodd" clip-rule="evenodd" d="M0 5.5C0 5.5 0 3 2.5 3H4.5C7 3 7 5.5 7 5.5V9.5C7 9.5 7 12 4.5 12H2.5C0 12 0 9.5 0 9.5V5.5ZM0.75 5.5C0.75 5.5 0.75 3.75 2.5 3.75H4.5C6.25 3.75 6.25 5.5 6.25 5.5V9.5C6.25 9.5 6.25 11.25 4.5 11.25H2.5C0.75 11.25 0.75 9.5 0.75 9.5V5.5Z" fill="white"/>
<path d="M1.5 2H2.5C3 2 3.5 1 3.5 1C3.5 1 4 2 4.5 2H5.5V1.5V1.25H5C4 1.25 4 0 4 0H3C3 0 3 1.25 2 1.25H1.5V2Z" fill="white"/>
</svg>
