<svg width="8" height="15" viewBox="0 0 8 15" fill="none" xmlns="http://www.w3.org/2000/svg">
<path fill-rule="evenodd" clip-rule="evenodd" d="M0.500006 5.5C0.500006 5.5 0.500006 3 3.00001 3H5.00001C5.73471 3 6.2535 3.21592 6.61983 3.52084L7.20399 2.76977L7.79601 3.23023L7.11189 4.10981C7.50001 4.77786 7.50001 5.5 7.50001 5.5V9.5C7.50001 9.5 7.50001 12 5.00001 12H3.00001C2.2653 12 1.74651 11.7841 1.38018 11.4792L0.796009 12.2302L0.203995 11.7698L0.88812 10.8902C0.500006 10.2221 0.500006 9.5 0.500006 9.5V5.5ZM1.25001 5.5C1.25001 5.5 1.25001 3.75 3.00001 3.75H5.00001C5.52412 3.75 5.89127 3.90697 6.14846 4.12689L1.40301 10.2282C1.25001 9.84473 1.25001 9.5 1.25001 9.5V5.5ZM5.00001 11.25H3.00001C2.47588 11.25 2.10874 11.093 1.85155 10.8731L6.597 4.77181C6.75001 5.15527 6.75001 5.5 6.75001 5.5V9.5C6.75001 9.5 6.75001 11.25 5.00001 11.25Z" fill="white"/>
</svg>
