<svg width="9" height="15" viewBox="0 0 9 15" fill="none" xmlns="http://www.w3.org/2000/svg">
<g clip-path="url(#clip0_29_49)">
<path fill-rule="evenodd" clip-rule="evenodd" d="M7 5L2 5C6.11959e-07 5 -5.60272e-07 7.5 -5.60272e-07 7.5L-9.53674e-07 12L2 12L2 7.5C2 7.5 2 7 2.5 7L5 6.99999L6.5 6.99997C7 7 7 7.5 7 7.5L7 10L6.5 10L6.5 7.5L3.5 7.5C2.5 7.5 2.5 8.5 2.5 8.5L2.5 11C2.5 11 2.5 12 3.5 12L9 12L9 7.49997C9 7.49997 9 5 7 5ZM5 9.49999L4 9.49999L4 10L5 10L5 9.49999Z" fill="white"/>
</g>
<defs>
<clipPath id="clip0_29_49">
<rect width="9" height="15" fill="white"/>
</clipPath>
</defs>
</svg>
