<svg width="5" height="15" viewBox="0 0 5 15" fill="none" xmlns="http://www.w3.org/2000/svg">
<g clip-path="url(#clip0_29_121)">
<path d="M5.00003 4.41421L3.58582 3L3.01807 3.56775C2.85283 3.52356 2.67917 3.5 2.5 3.5C2.32084 3.5 2.14718 3.52356 1.98196 3.56774L1.41421 3L0 4.41421L0.567743 4.98196C0.523557 5.14718 0.5 5.32084 0.5 5.5C0.5 5.67917 0.523559 5.85283 0.567749 6.01807L0 6.58582L1.41421 8.00003L1.98198 7.43226C2.1472 7.47644 2.32085 7.5 2.5 7.5C2.67916 7.5 2.85282 7.47644 3.01804 7.43226L3.58582 8.00003L5.00003 6.58582L4.43226 6.01804C4.47644 5.85282 4.5 5.67916 4.5 5.5C4.5 5.32085 4.47644 5.1472 4.43226 4.98198L5.00003 4.41421Z" fill="white"/>
</g>
<defs>
<clipPath id="clip0_29_121">
<rect width="5" height="15" fill="white"/>
</clipPath>
</defs>
</svg>
