<svg width="7" height="15" viewBox="0 0 7 15" fill="none" xmlns="http://www.w3.org/2000/svg">
<g clip-path="url(#clip0_29_69)">
<path d="M7 10L7 12L2 12C2 12 0 12 1.74846e-07 10L3.0598e-07 8.5C4.80825e-07 6.5 2 6.5 2 6.5L3 6.5L3 6L5 6L5 8.5L3 8.5C3 8.5 2 8.5 2 9.25C2 10 3 10 3 10L7 10Z" fill="white"/>
<path d="M5 3L3 3L3 5L5 5L5 3Z" fill="white"/>
</g>
<defs>
<clipPath id="clip0_29_69">
<rect width="7" height="15" fill="white" transform="translate(7 15) rotate(-180)"/>
</clipPath>
</defs>
</svg>
