<svg width="7" height="15" viewBox="0 0 7 15" fill="none" xmlns="http://www.w3.org/2000/svg">
<g clip-path="url(#clip0_2_1090)">
<path d="M0.5 0L2 2.50343e-07C2 2.50343e-07 2 0.5 2.5 0.5L4.5 0.5V2H1.5C0.5 2 0.5 1 0.5 1V0Z" fill="white"/>
<path fill-rule="evenodd" clip-rule="evenodd" d="M0 12V5.5C0 5.5 0 3 2.5 3H4.5C7 3 7 5.5 7 5.5V12H5.5V9H1.5V12H0ZM1.5 5.5V7.5H5.5V5.5C5.5 5.5 5.5 4.5 4.5 4.5H2.5C1.5 4.5 1.5 5.5 1.5 5.5Z" fill="white"/>
</g>
<defs>
<clipPath id="clip0_2_1090">
<rect width="7" height="15" fill="white"/>
</clipPath>
</defs>
</svg>
