<svg width="8" height="15" viewBox="0 0 8 15" fill="none" xmlns="http://www.w3.org/2000/svg">
<g clip-path="url(#clip0_2_1122)">
<path fill-rule="evenodd" clip-rule="evenodd" d="M5.5 3L1.00003 3L1 6.75L4.58969e-07 6.75L3.27835e-07 8.25L1.00003 8.25L1.00003 12L5.5 12C8.00003 12 8 9.5 8 9.5L8.00003 5.5C8.00003 5.5 8 3 5.5 3ZM6.5 9.5C6.5 9.5 6.5 10.5 5.5 10.5L2.5 10.5L2.5 8.25L4.5 8.25L4.5 6.75L2.5 6.75L2.5 4.5L5.5 4.5C6.5 4.5 6.5 5.5 6.5 5.5L6.5 9.5Z" fill="white"/>
</g>
<defs>
<clipPath id="clip0_2_1122">
<rect width="8" height="15" fill="white"/>
</clipPath>
</defs>
</svg>
