<svg width="9" height="15" viewBox="0 0 9 15" fill="none" xmlns="http://www.w3.org/2000/svg">
<path fill-rule="evenodd" clip-rule="evenodd" d="M0.385574 12.0699L1.31125 10.7475C0.999996 10.1234 0.999996 9.50001 0.999996 9.50001V5.50001C0.999996 5.50001 0.999996 3.00001 3.5 3.00001H5.5C5.93609 3.00001 6.29611 3.07608 6.59333 3.20169L7.38557 2.06992L8.61442 2.93011L7.68874 4.25251C8 4.87668 8 5.50001 8 5.50001V9.50001C8 9.50001 8 12 5.5 12H3.5C3.0639 12 2.70388 11.9239 2.40666 11.7983L1.61442 12.9301L0.385574 12.0699ZM2.5 5.50001V9.04931L5.67659 4.51132C5.6215 4.50395 5.56271 4.50001 5.5 4.50001H3.5C2.5 4.50001 2.5 5.50001 2.5 5.50001ZM5.5 10.5H3.5C3.43728 10.5 3.3785 10.4961 3.3234 10.4887L6.5 5.95072V9.50001C6.5 9.50001 6.5 10.5 5.5 10.5Z" fill="white"/>
</svg>
