<svg width="7" height="15" viewBox="0 0 7 15" fill="none" xmlns="http://www.w3.org/2000/svg">
<path d="M2.5 0C3 0 3.5 0.5 3.5 0.5C3.5 0.5 4 0 4.5 0H5.5V1.5H5C4.5 1.5 4.5 2 4.5 2H2.5C2.5 2 2.5 1.5 2 1.5H1.5V0H2.5Z" fill="white"/>
<path d="M6.5 4.50001V3.00001L2.5 3.00001C0 3.00001 0 5.50001 0 5.50001V5.75001C0 5.75001 0 8.25001 2.5 8.25001H4.5C5.5 8.25001 5.5 9.18751 5.5 9.18751V9.37501C5.5 9.37501 5.5 10.5 4.5 10.5H0.5V12H4.5C7 12 7 9.50001 7 9.50001V9.18751C7 9.18751 7 6.75001 4.5 6.75001H2.5C1.5 6.75001 1.5 5.75001 1.5 5.75001V5.50001C1.5 5.50001 1.5 4.50001 2.5 4.50001H6.5Z" fill="white"/>
</svg>
