<svg width="7" height="15" viewBox="0 0 7 15" fill="none" xmlns="http://www.w3.org/2000/svg">
<path d="M2.5 2L4.5 2C4.5 2 4.5 1.5 5 1.5L5.5 1.5L5.5 0L4.5 -1.74112e-09C4 1.31134e-07 3.5 0.5 3.5 0.5C3.5 0.5 3 1.31134e-07 2.5 1.28887e-07L1.5 -3.23911e-09L1.5 1.5L2 1.5C2.5 1.5 2.5 2 2.5 2Z" fill="white"/>
<path d="M1.29938e-06 4.5L1.43051e-06 3L7 3L7 4.5C7 7 3.5 8.25 3.5 8.25C3.5 8.25 1.5 9 1.5 10.5L7 10.5L7 12L1.66869e-07 12L-1.78834e-07 10.5C3.97232e-08 8 3.5 6.75 3.5 6.75C3.5 6.75 5.5 6 5.5 4.5L1.29938e-06 4.5Z" fill="white"/>
</svg>
