<svg width="7" height="15" viewBox="0 0 7 15" fill="none" xmlns="http://www.w3.org/2000/svg">
<g clip-path="url(#clip0_29_164)">
<path fill-rule="evenodd" clip-rule="evenodd" d="M1.47821e-06 5.99999L1.30337e-06 7.99999L2.5 7.99999L2.5 8.49999L1 8.49999C1.25965e-06 8.49999 1.17223e-06 9.49999 1.17223e-06 9.49999L1.0411e-06 11C1.0411e-06 11 1.43051e-06 12 1 12L7 12L7 9.99999L4.5 10L4.5 9.5L7 9.5L7 7C7 7 7 6 6 6L1.47821e-06 5.99999ZM2.5 9.49999L1.5 9.49999L1.5 9.99999L2.5 10L2.5 9.49999ZM4.5 8L4.5 8.5L5.5 8.5L5.5 8L4.5 8Z" fill="white"/>
</g>
<defs>
<clipPath id="clip0_29_164">
<rect width="7" height="15" fill="white"/>
</clipPath>
</defs>
</svg>
