<svg width="6" height="15" viewBox="0 0 6 15" fill="none" xmlns="http://www.w3.org/2000/svg">
<g clip-path="url(#clip0_29_168)">
<path fill-rule="evenodd" clip-rule="evenodd" d="M1.80405e-06 7C1.9789e-06 6 1 6 1 6L3 6L3 5.5L1.5 5.5L1.5 3.5L3 3.5L3 3L5 3L5 3.5L6 3.5L6 5.5L5 5.5L5 11C5 11 5 12 4 12L0.999999 12C-5.96046e-08 12 8.74228e-08 11 8.74228e-08 11L1.80405e-06 7ZM3 10L2 10L2 8L3 8L3 10Z" fill="white"/>
</g>
<defs>
<clipPath id="clip0_29_168">
<rect width="6" height="15" fill="white"/>
</clipPath>
</defs>
</svg>
