<svg width="5" height="15" viewBox="0 0 5 15" fill="none" xmlns="http://www.w3.org/2000/svg">
<g clip-path="url(#clip0_29_197)">
<path d="M0.5 3L2.5 3C2.5 3 2.5 3.5 3 3.5L4 3.5V5.5H2.5C0.5 5.5 0.5 3.5 0.5 3.5V3Z" fill="white"/>
<path fill-rule="evenodd" clip-rule="evenodd" d="M8.74228e-08 11C7.62939e-06 12 1 12 1 12L4 12C4 12 5 12 5 11L5 7C5 6 4 6 4 6L1 6C1 6 1.47821e-06 6 -3.97233e-08 7L8.74228e-08 11ZM3 8L2 8L2 10L3 10L3 8Z" fill="white"/>
</g>
<defs>
<clipPath id="clip0_29_197">
<rect width="5" height="15" fill="white"/>
</clipPath>
</defs>
</svg>
