<svg width="6" height="15" viewBox="0 0 6 15" fill="none" xmlns="http://www.w3.org/2000/svg">
<path fill-rule="evenodd" clip-rule="evenodd" d="M0.514859 11.2012L0.115891 11.6799L0.884112 12.3201L1.19258 11.9499C1.36415 12 1.5 12 1.5 12H4.5C4.5 12 5.5 12 5.5 11L5.5 7.00002C5.5 6.9279 5.4948 6.86097 5.48514 6.79888L5.88411 6.32012L5.11589 5.67993L4.80742 6.0501C4.63586 6.00002 4.5 6.00002 4.5 6.00002L1.5 6.00002C1.5 6.00002 0.500003 6.00002 0.500001 7.00002L0.500001 11C0.500002 11.0721 0.505204 11.1391 0.514859 11.2012ZM3.18248 8.00002H2.5V8.819L3.18248 8.00002ZM3.5 9.18105V10L2.81752 10L3.5 9.18105Z" fill="white"/>
</svg>
