<svg width="7" height="15" viewBox="0 0 7 15" fill="none" xmlns="http://www.w3.org/2000/svg">
<g clip-path="url(#clip0_29_214)">
<path fill-rule="evenodd" clip-rule="evenodd" d="M1 12C1 12 1.04904e-05 12 2.94845e-06 11L2.8213e-06 7C4.33923e-06 6 1 6 1 6L6 6C7 6 7 7 7 7L7 9.5L4.5 9.5L4.5 10L7 10L7 12L1 12ZM2.5 8L2 8L2 10L2.5 10L2.5 8ZM5.5 8.5L5.5 8L4.5 8L4.5 8.5L5.5 8.5Z" fill="white"/>
</g>
<defs>
<clipPath id="clip0_29_214">
<rect width="7" height="15" fill="white"/>
</clipPath>
</defs>
</svg>
