<svg width="5" height="15" viewBox="0 0 5 15" fill="none" xmlns="http://www.w3.org/2000/svg">
<g clip-path="url(#clip0_29_233)">
<path d="M4.5 3H2.5C2.5 3 2.5 3.5 2 3.5H1V5.5H2.5C4.5 5.5 4.5 3.5 4.5 3.5V3Z" fill="white"/>
<path d="M3 10.5L3 6L5 6L5 11C5 12 4 12 4 12L3.5 12L3.5 15L1.5 15L1.5 12L1.00001 12C1.00001 12 1.50442e-05 12 1.51316e-05 11L1.50919e-05 6L2.00001 6L2.00001 10.5L3 10.5Z" fill="white"/>
</g>
<defs>
<clipPath id="clip0_29_233">
<rect width="5" height="15" fill="white"/>
</clipPath>
</defs>
</svg>
